<svg version="1.1" id="Layer_1" x="0" y="0" width="1200" height="1385.441" xml:space="preserve" xmlns="http://www.w3.org/2000/svg"><path fill="#36a2eb" d="M1165.182 697.535c-193.685 3.801-153.342 126.413-289.843 157.42-138.665 31.502-160.555-338.662-299.186-338.662-138.648 0-169.361 359.574-342.966 606.425l-4.953 6.988 372.208 214.856 564.74-326.02z" id="path2" style="stroke-width:8.65901px"/><path fill="#ffce56" d="M1165.182 686.374c-64.839-83.213-108.818-178.878-203.435-178.878-167.439 0-123.382 273.148-308.433 273.148-185.07 0-204.526-293.809-414.178-17.62-66.804 88-120.577 186.125-162.816 278.975l524.122 302.572 564.74-326.02z" id="path4" style="stroke-width:8.65901px"/><path opacity=".8" fill="#fe6184" d="M35.684 799.52c63.54-175.959 90.963-318.469 212.267-318.469 185.051 0 229.1 519.878 387.741 466.99 158.616-52.864 140.986-334.836 387.742-334.836 46.967 0 94.92 28.774 141.757 75.316v330.02l-564.74 326.021-564.759-326.02V799.52Z" id="path6" style="stroke-width:8.65901px"/><path fill="#e7e9ed" d="M600 1385.441 0 1039.09V346.36L600 0l600 346.36v692.721ZM70.493 998.392 600 1304.064l529.507-305.672V387.058L600 81.386 70.493 387.058Z" id="path8" style="stroke-width:8.65901px"/></svg>