<svg width="800" height="800" viewBox="0 0 73 73" xmlns="http://www.w3.org/2000/svg"><g id="build-tools/parcel" stroke="none" stroke-width="1" fill="none" fill-rule="nonzero"><g id="container" transform="translate(2 2)" fill="#FFF" stroke="#2D1C05" stroke-width="2"><rect id="mask" x="-1" y="-1" width="71" height="71" rx="14"/></g><g id="package" transform="translate(11 14)"><path id="Shape" fill="#D38C0D" d="m33.479 20.194 17.439-10.117L33.479.04l-17.356 10.2z"/><g id="Group" fill="#EFBB67"><path id="Shape" d="M17.521 20.194 34.795 10.16 17.521.04 0 10.16z"/><path id="Shape" d="M42.774 35 25.5 45.12 8.226 35V14.848L25.5 4.73l17.274 10.118z"/></g><path id="Shape" fill="#D38C0D" d="m25.5 4.73 17.274 10.118V35L25.5 45.119"/><path id="Shape" fill="#EFBB67" d="m33.561 29.49 17.357-9.954L33.479 9.42 16.04 19.536z"/><path id="Shape" fill="#D38C0D" d="m17.521 29.654 17.356-10.2L17.521 9.419 0 19.536z"/><path id="Shape" fill="#704A0E" d="m25.582 24.965 17.192-10.117L25.582 4.73 8.062 14.848z"/><path id="Shape" fill="#513307" d="m25.582 24.965 17.192-10.117L25.582 4.73"/><path id="Shape" fill="#2D1C05" d="m25.582 24.965 3.702-2.22-3.702-2.14-3.701 2.14z"/><g id="Group" transform="translate(37.839 27.556)" fill="#0DD396"><path id="Shape" d="M0 8.596 4.113 6.21V4.894L0 7.28zM0 6.21l4.113-2.385V2.509L0 4.894zM0 3.825 4.113 1.44V.04L0 2.51z"/></g></g></g></svg>