<svg xmlns="http://www.w3.org/2000/svg" version="1.0" viewBox="180.84 129.18 506.31 1032.79"><path d="M329.4 130.1c-32.5.4-63.1 1.2-68.1 1.8-26.5 3.2-47.3 13.8-59.8 30.3-6.5 8.6-12.1 20.5-14.6 31.3-2 8.3-2.2 12.4-2.6 54.5-.4 36.9-.7 45.8-1.9 47.4-2.1 3.1-2.1 64.3.1 67.2 2.1 2.8 2.1 38 0 40.8-2.2 2.9-2.2 64.1 0 67.3 1.3 1.8 1.5 39.6 1.8 310.9l.2 308.9 2.3 8.5c6.3 23.5 22.3 42.3 43.7 51.3 9.2 3.8 23 7.5 32.5 8.6 34.8 4.1 308 4.1 342 0 23.2-2.8 43.8-11.7 56.8-24.8 9.3-9.3 15.2-19.9 19.4-34.6l2.3-8 .3-314.1c.2-276.8.4-314.3 1.7-315.4 2.2-1.8 2.2-65.5 0-68.6-1.2-1.8-1.5-15.8-1.8-97-.4-102.4-.1-98-5.7-113.9-9.6-27.8-35.2-46.1-70.6-50.5-9.2-1.2-134.6-3-186.4-2.8-17.9.1-59.1.5-91.6.9zM665.1 236c1.9 1.1 1.9 6.7 1.9 411.8 0 318.2-.3 411.1-1.2 412-.9.9-53.8 1.2-231.9 1.2-208.4 0-230.9-.2-232.3-1.6-1.5-1.4-1.6-40.1-1.6-411.2 0-225.3.4-410.2.8-410.8.4-.6 1.4-1.4 2.2-1.7 2.9-1.1 460-.8 462.1.3z"/></svg>